<?xml version="1.0" encoding="UTF-8"?>
<!DOCTYPE svg PUBLIC "-//W3C//DTD SVG 1.1//EN" "http://www.w3.org/Graphics/SVG/1.1/DTD/svg11.dtd">
<!-- Creator: CorelDRAW X8 -->
<svg xmlns="http://www.w3.org/2000/svg" xml:space="preserve" width="210mm" height="210mm" version="1.1" style="shape-rendering:geometricPrecision; text-rendering:geometricPrecision; image-rendering:optimizeQuality; fill-rule:evenodd; clip-rule:evenodd"
viewBox="0 0 21000 21000"
 xmlns:xlink="http://www.w3.org/1999/xlink">
 <defs>
  <style type="text/css">
   <![CDATA[
    .fil0 {fill:#1DFAAD}
   ]]>
  </style>
 </defs>
 <g id="Capa_x0020_1">
  <metadata id="CorelCorpID_0Corel-Layer"/>
  <g id="_2550781252752">
   <path class="fil0" d="M14135 14960c197,0 357,-160 357,-357l0 -3649 1536 0c150,0 277,-87 332,-226 55,-139 21,-290 -89,-392 -2869,-2668 -2945,-2738 -5528,-5141 -69,-63 -156,-95 -243,-95 -87,0 -174,32 -243,95l-5528 5141c-110,102 -144,253 -89,392 55,139 182,226 332,226l1536 0 0 0 0 3649c0,197 160,357 357,357 2423,0 4847,0 7270,0zm-5744 -5257l1491 0 0 -1499 0 0c0,-12 9,-21 21,-21l1209 0 0 0c12,0 21,9 21,21l0 1499 1491 0 0 0c12,0 21,9 21,21l0 1209 0 0c0,12 -9,21 -21,21l-1491 0 0 1499 0 1c0,11 -9,20 -21,20l-1209 0 0 0c-12,0 -21,-9 -21,-20l0 -1500 -1490 0 -1 0c-12,0 -21,-9 -21,-21l0 -1209 0 0c0,-12 9,-21 21,-21z"/>
   <path class="fil0" d="M10500 19790c-5122,0 -9290,-4167 -9290,-9290 0,-5122 4168,-9290 9290,-9290 5123,0 9290,4168 9290,9290 0,5123 -4167,9290 -9290,9290zm0 -17201l0 0c-4363,0 -7911,3549 -7911,7911 0,4363 3548,7911 7911,7911 4363,0 7912,-3548 7912,-7911 0,-4362 -3549,-7911 -7912,-7911z"/>
  </g>
 </g>
</svg>
